<svg xmlns="http://www.w3.org/2000/svg" xmlns:xlink="http://www.w3.org/1999/xlink" width="26.956" height="27" viewBox="0 0 26.956 27"><defs><style>.a{fill:url(#a);}.b{fill:#7bd375;}</style><linearGradient id="a" x1="0.622" y1="1" x2="0.616" gradientUnits="objectBoundingBox"><stop offset="0" stop-color="#acde45"/><stop offset="1" stop-color="#6bc17a"/></linearGradient></defs><g transform="translate(-43.191 -20.8)"><path class="a" d="M56.669,47.8A13.5,13.5,0,1,1,70.147,34.278,13.5,13.5,0,0,1,56.669,47.8Zm0-25.277A11.755,11.755,0,1,0,68.424,34.278,11.749,11.749,0,0,0,56.669,22.523Z" transform="translate(0)"/><path class="b" d="M313.263,362.782a.872.872,0,0,1-.619-.265l-3.579-3.668a.875.875,0,0,1,1.237-1.237l2.961,3.049,6.452-6.054a.875.875,0,1,1,1.193,1.281l-7.07,6.628A.713.713,0,0,1,313.263,362.782Z" transform="translate(-258.273 -324.35)"/></g></svg>