<svg xmlns="http://www.w3.org/2000/svg" width="50" height="50"
 viewBox="0 0 50 50"><defs>
 <style>.a{fill:#343434;opacity:0;}.b{fill:#181A20;}
 </style></defs>
 <g transform="translate(-1470 -671)">
 <rect class="a" width="50" height="50" rx="13"
  transform="translate(1470 671)"/><path class="b" d="M141.892,68.445a1.667,1.667,0,0,1,1.667,1.667V85.671a1.667,1.667,0,0,1-1.667,1.667H129.667A1.667,1.667,0,0,1,128,85.671V70.112a1.667,1.667,0,0,1,1.667-1.667Zm-.556,2.223H130.223V85.116h11.114Zm5-6.668a1.667,1.667,0,0,1,1.66,1.507l.007.16v15a1.111,1.111,0,0,1-2.215.13l-.008-.13V66.223H134.668a1.111,1.111,0,0,1-1.1-.981l-.008-.13a1.111,1.111,0,0,1,.981-1.1l.13-.008h11.665Z" transform="translate(1357 620)"/></g></svg>