<?xml version="1.0" encoding="UTF-8"?>
<svg width="28px" height="28px" viewBox="0 0 28 28" version="1.1" xmlns="http://www.w3.org/2000/svg"
	xmlns:xlink="http://www.w3.org/1999/xlink">
	<g id="官网状态1" transform="translate(-1642.000000, -16.000000)">
		<g id="facebook" transform="translate(1642.000000, 16.000000)">
			<rect id="矩形" fill="#D8D8D8" opacity="0" x="0" y="0" width="28" height="28"></rect>
			<path
				d="M19,4.13999722 L19,7.19555093 L17.1829744,7.19555093 C16.5192595,7.19555093 16.0715929,7.33432013 15.8399966,7.61185851 C15.6084002,7.88939688 15.4926131,8.30592375 15.4926131,8.86148296 L15.4926131,11.048874 L18.8837084,11.048874 L18.4325989,14.4748151 L15.4926131,14.4748152 L15.4926131,23.259247 L11.951126,23.259247 L11.951126,14.4748371 L9,14.4748371 L9,11.0488959 L11.951104,11.0488959 L11.951104,8.52591944 C11.951104,7.09088198 12.3523461,5.97778991 13.1548303,5.18668711 C13.9572925,4.39556238 15.0259337,4 16.3607538,4 C17.4950735,4 18.374815,4.0461833 19,4.13852796 L19,4.13999722 L19,4.13999722 Z"
				id="路径" fill="#000000" fill-rule="nonzero"></path>
		</g>
	</g>
</svg>
