<svg xmlns="http://www.w3.org/2000/svg" width="27" height="27" viewBox="0 0 27 27"><defs><style>.a{fill:rgba(255,255,255,0.54);}</style></defs><path class="a" d="M14.711,23.71h2.25v-2.25h-2.25v2.25Zm3.45-7.049a3.163,3.163,0,0,0-1.65,2.625v.675h-1.8v-.825a4.019,4.019,0,0,1,1.8-3.45c1.349-.974,2.025-1.95,1.875-2.85a2.213,2.213,0,0,0-2.325-2.175c-1.65-.075-2.7.9-3.074,2.925L10.96,13.06c.6-3,2.475-4.424,5.475-4.349,2.625.15,3.975,1.425,4.274,3.9.076,1.5-.75,2.85-2.549,4.05Zm-1.95-12.45a12,12,0,1,0,12,12,12.035,12.035,0,0,0-12-12Zm0,25.5a13.5,13.5,0,1,1,13.5-13.5,13.539,13.539,0,0,1-13.5,13.5Z" transform="translate(-2.711 -2.711)"/></svg>