<?xml version="1.0" encoding="UTF-8"?>
<svg width="28px" height="28px" viewBox="0 0 28 28" version="1.1" xmlns="http://www.w3.org/2000/svg"
	xmlns:xlink="http://www.w3.org/1999/xlink">
	<g id="官网状态1" transform="translate(-1590.000000, -16.000000)">
		<g id="电报-01" transform="translate(1590.000000, 16.000000)">
			<rect id="矩形" fill-opacity="0" fill="#000000" x="0" y="0" width="28" height="28"></rect>
			<path
				d="M23.748665,5.61634633 C24.295343,5.35217423 24.634349,5.64834233 24.487419,6.14387015 L20.7772322,19.5944968 C20.651644,20.0522858 20.2863711,20.2262128 19.9317692,20.1253023 C19.5755256,20.0243918 13.2747746,18.175187 13.2747746,18.175187 C12.9029351,18.0619704 12.7798094,17.6583285 13.0679235,17.3490339 L19.7331265,9.88740231 L10.6382435,17.2144866 C10.4981666,17.3238943 10.3122313,17.3550732 10.1440992,17.297348 C10.1440992,17.297348 5.19937222,15.8813199 4.39248867,15.6450417 C3.58478427,15.4079431 3.77193528,14.8016599 4.30055482,14.5571777 C4.82835353,14.3126954 23.7527692,5.62290963 23.7527692,5.62290963 L23.748665,5.61634633 Z M14.4838687,19.7495544 C14.7366867,19.8250321 14.7801911,20.0498245 14.6587071,20.2188291 L12.8709224,22.5373085 C12.6000459,22.8868033 12.2684274,22.7440519 12.2684274,22.4683941 L12.2684274,19.5337865 C12.2613991,19.437006 12.3041763,19.3433127 12.3819245,19.285198 C12.4596726,19.2270833 12.5616829,19.2125519 12.6525795,19.2466429 L14.4830478,19.748734 L14.4830478,19.7495544 L14.4838687,19.7495544 Z"
				id="形状" fill="#FFFFFF" fill-rule="nonzero"></path>
		</g>
	</g>
</svg>
