<?xml version="1.0" encoding="UTF-8"?>
<svg width="28px" height="28px" viewBox="0 0 28 28" version="1.1" xmlns="http://www.w3.org/2000/svg"
	xmlns:xlink="http://www.w3.org/1999/xlink">
	<g id="官网状态1" transform="translate(-1538.000000, -16.000000)">
		<g id="推特" transform="translate(1538.000000, 16.000000)">
			<rect id="矩形" fill-opacity="0" fill="#000000" x="0" y="0" width="28" height="28"></rect>
			<path
				d="M10.286688,22.1835308 C18.0190891,22.1835308 22.2495836,15.7789044 22.2495836,10.2268641 C22.2495836,10.0463972 22.2456796,9.86251601 22.2373835,9.68253683 C23.0603856,9.08783933 23.7706547,8.3511827 24.3348187,7.50717883 C23.5683019,7.84793261 22.7544818,8.07044072 21.9211579,8.16710246 C22.7987734,7.64142458 23.4558987,6.815507 23.7706877,5.84249346 C22.9452647,6.33142427 22.0425735,6.67631352 21.1013135,6.86237541 C19.7976039,5.47736316 17.7265864,5.13827451 16.0488749,6.03513729 C14.3711633,6.93200006 13.5036744,8.84194098 13.9325554,10.6946148 C10.5526825,10.525142 7.40343755,8.9304218 5.26758128,6.30682997 C4.1534941,8.22658295 4.72291576,10.6811217 6.5685962,11.9149614 C5.90095866,11.8938627 5.2479236,11.7143047 4.66343407,11.3911196 L4.66343407,11.4428209 C4.66212814,13.4444296 6.07377776,15.1690393 8.036996,15.5642951 C7.41857943,15.7332966 6.76955116,15.757829 6.14012991,15.6359941 C6.69085194,17.3476196 8.26807027,18.5210027 10.0665988,18.5571195 C8.30423637,19.9407337 6.06336485,20.5663838 3.83870968,20.2959426 C5.76269965,21.5296018 8.00081015,22.1847881 10.286688,22.1835308 Z"
				id="路径" fill="#000000" fill-rule="nonzero"></path>
		</g>
	</g>
</svg>
